<svg xmlns="http://www.w3.org/2000/svg" viewBox="0 0 11.82 15.76"><defs><style>.cls-1{fill:#0f300f;}</style></defs><title>download</title><g id="圖層_2" data-name="圖層 2"><g id="圖層_1-2" data-name="圖層 1"><path class="cls-1" d="M6.9,4.19V0H.74A.74.74,0,0,0,0,.74V15a.74.74,0,0,0,.74.74H11.08a.74.74,0,0,0,.74-.74V4.93H7.64A.74.74,0,0,1,6.9,4.19Zm2.35,6.5-3,3a.53.53,0,0,1-.74,0l-3-3a.49.49,0,0,1,.35-.84h2V7.39a.49.49,0,0,1,.49-.49h1a.49.49,0,0,1,.5.49V9.85h2a.49.49,0,0,1,.35.84Zm2.36-7.46-3-3A.73.73,0,0,0,8.07,0H7.88V3.94h3.94V3.75A.73.73,0,0,0,11.61,3.23Z"/></g></g></svg>